<?xml version="1.0" encoding="UTF-8" standalone="no"?>
<!-- Generator: Adobe Illustrator 16.0.0, SVG Export Plug-In . SVG Version: 6.00 Build 0)  -->

<svg
   xmlns:dc="http://purl.org/dc/elements/1.1/"
   xmlns:cc="http://creativecommons.org/ns#"
   xmlns:rdf="http://www.w3.org/1999/02/22-rdf-syntax-ns#"
   xmlns:svg="http://www.w3.org/2000/svg"
   xmlns="http://www.w3.org/2000/svg"
   xmlns:sodipodi="http://sodipodi.sourceforge.net/DTD/sodipodi-0.dtd"
   xmlns:inkscape="http://www.inkscape.org/namespaces/inkscape"
   sodipodi:docname="logo.svg"
   xml:space="preserve"
   enable-background="new 0 0 349.625 273.684"
   viewBox="0 0 250 250.00001"
   height="250"
   width="250"
   y="0px"
   x="0px"
   id="Layer_1"
   version="1.1"
   inkscape:version="0.92.1 r15371"><metadata
     id="metadata55"><rdf:RDF><cc:Work
         rdf:about=""><dc:format>image/svg+xml</dc:format><dc:type
           rdf:resource="http://purl.org/dc/dcmitype/StillImage" /><dc:title></dc:title></cc:Work></rdf:RDF></metadata><defs
     id="defs53" /><sodipodi:namedview
     inkscape:current-layer="Layer_1"
     inkscape:window-maximized="1"
     inkscape:window-y="0"
     inkscape:window-x="0"
     inkscape:cy="105.3271"
     inkscape:cx="59.59552"
     inkscape:zoom="2.0386518"
     showgrid="false"
     id="namedview51"
     inkscape:window-height="997"
     inkscape:window-width="1920"
     inkscape:pageshadow="2"
     inkscape:pageopacity="0"
     guidetolerance="10"
     gridtolerance="10"
     objecttolerance="10"
     borderopacity="1"
     bordercolor="#666666"
     pagecolor="#ffffff" /><g
     id="g86"
     transform="matrix(1.5863615,0,0,1.587084,-153.68007,-55.331669)"><g
       id="g4"><path
         d="m 97.09,114.056 c 0,-12.882 -0.073,-25.762 0.031,-38.64 0.05,-6.283 0.432,-12.604 2.802,-18.514 4.219,-10.515 11.748,-17.412 22.884,-20.166 7.866,-1.944 15.894,-1.799 23.893,-1.821 20.888,-0.056 41.778,-0.105 62.667,0.075 5.926,0.052 11.941,0.399 17.748,1.493 13.834,2.606 23.865,12.991 25.918,26.896 1.005,6.814 1.265,13.786 1.318,20.689 0.16,21.159 0.158,42.323 -0.009,63.483 -0.046,5.816 -0.552,11.682 -1.438,17.432 -1.956,12.673 -12.951,24.523 -27.912,26.296 -6.32,0.747 -12.729,1.016 -19.1,1.043 -22.677,0.1 -45.353,0.09 -68.029,-0.091 -4.837,-0.039 -9.78,-0.485 -14.478,-1.584 -13.555,-3.168 -21.855,-11.873 -25.001,-25.391 -1.719,-7.385 -1.447,-14.949 -1.484,-22.467 -0.047,-9.579 -0.011,-19.157 -0.011,-28.736 0.066,0.003 0.133,0.003 0.201,0.003 z"
         id="path2"
         inkscape:connector-curvature="0"
         style="fill:#14a6c7" /></g><g
       id="g46"><circle
         cx="175.62399"
         cy="77.719002"
         r="21.222"
         id="circle40"
         style="fill:#ffffff" /><path
         d="m 216.191,147.115 h -12.357 v -19.586 c 0,-5.68 -4.616,-10.298 -10.298,-10.298 h -35.253 c -5.679,0 -10.297,4.618 -10.297,10.298 v 19.586 H 135.63 v -19.586 c 0,-12.49 10.162,-22.652 22.654,-22.652 h 35.253 c 12.492,0 22.654,10.162 22.654,22.652 z"
         id="path42"
         inkscape:connector-curvature="0"
         style="fill:#ffffff" /><path
         d="m 230.016,165.087 c 0,3.131 -2.539,5.669 -5.67,5.669 h -97.443 c -3.131,0 -5.669,-2.538 -5.669,-5.669 v -5.296 c 0,-3.131 2.538,-5.669 5.669,-5.669 h 97.443 c 3.131,0 5.67,2.538 5.67,5.669 z"
         id="path44"
         inkscape:connector-curvature="0"
         style="fill:#ffffff" /></g></g></svg>