<?xml version="1.0" encoding="utf-8"?>
<!-- Generator: Adobe Illustrator 16.0.0, SVG Export Plug-In . SVG Version: 6.00 Build 0)  -->
<!DOCTYPE svg PUBLIC "-//W3C//DTD SVG 1.1//EN" "http://www.w3.org/Graphics/SVG/1.1/DTD/svg11.dtd">
<svg version="1.1" id="Layer_1" xmlns="http://www.w3.org/2000/svg" xmlns:xlink="http://www.w3.org/1999/xlink" x="0px" y="0px"
	 width="349.625px" height="273.684px" viewBox="0 0 349.625 273.684" enable-background="new 0 0 349.625 273.684"
	 xml:space="preserve">
<g>
	<g>
		<path fill="#14A6C7" d="M97.09,114.056c0-12.882-0.073-25.762,0.031-38.64c0.05-6.283,0.432-12.604,2.802-18.514
			c4.219-10.515,11.748-17.412,22.884-20.166c7.866-1.944,15.894-1.799,23.893-1.821c20.888-0.056,41.778-0.105,62.667,0.075
			c5.926,0.052,11.941,0.399,17.748,1.493c13.834,2.606,23.865,12.991,25.918,26.896c1.005,6.814,1.265,13.786,1.318,20.689
			c0.16,21.159,0.158,42.323-0.009,63.483c-0.046,5.816-0.552,11.682-1.438,17.432c-1.956,12.673-12.951,24.523-27.912,26.296
			c-6.32,0.747-12.729,1.016-19.1,1.043c-22.677,0.1-45.353,0.09-68.029-0.091c-4.837-0.039-9.78-0.485-14.478-1.584
			c-13.555-3.168-21.855-11.873-25.001-25.391c-1.719-7.385-1.447-14.949-1.484-22.467c-0.047-9.579-0.011-19.157-0.011-28.736
			C96.955,114.056,97.022,114.056,97.09,114.056z"/>
	</g>
	<g>
		<path fill="#14A6C7" d="M55.062,214.055l-10.389,26.254h-4.876l3.488-8.363l-7.876-17.891h5.138l4.914,12.564l4.463-12.564H55.062
			z"/>
		<path fill="#14A6C7" d="M76.064,223.582c0,5.551-4.313,9.977-10.052,9.977c-5.701,0-10.014-4.426-10.014-9.977
			c0-5.588,4.313-9.978,10.014-9.978C71.751,213.605,76.064,217.994,76.064,223.582z M71.188,223.582c0-2.963-1.988-5.4-5.176-5.4
			c-3.15,0-5.138,2.438-5.138,5.4s1.988,5.399,5.138,5.399C69.201,228.982,71.188,226.545,71.188,223.582z"/>
		<path fill="#14A6C7" d="M85.027,218.406v6.938c0,2.176,0.3,3.451,2.925,3.451c0.338,0,0.788-0.037,1.125-0.074v4.351
			c-0.488,0.149-1.013,0.264-1.988,0.264c-4.876,0-6.826-3.264-6.826-7.201v-7.727h-2.701v-4.353h2.701v-3.975h4.763v3.975h4.051
			v4.353L85.027,218.406L85.027,218.406z"/>
		<path fill="#14A6C7" d="M110.68,225.42H96.578c0.675,2.551,2.775,3.899,5.401,3.899c2.175,0,3.676-1.161,4.238-1.875l3.826,2.25
			c-1.538,2.14-4.463,3.863-8.064,3.863c-6.301,0-10.464-4.201-10.464-9.977c0-5.963,4.463-9.978,9.714-9.978
			C106.967,213.605,111.542,217.918,110.68,225.42z M106.029,221.744c-0.488-2.478-2.175-3.9-4.726-3.9
			c-2.325,0-4.163,1.463-4.726,3.9H106.029z"/>
		<path fill="#14A6C7" d="M118.93,206.816v26.254h-4.763v-26.254H118.93z"/>
		<path fill="#14A6C7" d="M141.47,225.42h-14.103c0.675,2.551,2.775,3.899,5.401,3.899c2.175,0,3.676-1.161,4.238-1.875l3.826,2.25
			c-1.538,2.14-4.463,3.863-8.064,3.863c-6.301,0-10.464-4.201-10.464-9.977c0-5.963,4.463-9.978,9.714-9.978
			C137.757,213.605,142.333,217.918,141.47,225.42z M136.819,221.744c-0.488-2.478-2.175-3.9-4.726-3.9
			c-2.325,0-4.163,1.463-4.726,3.9H136.819z"/>
		<path fill="#14A6C7" d="M150.545,218.406v6.938c0,2.176,0.3,3.451,2.925,3.451c0.338,0,0.788-0.037,1.125-0.074v4.351
			c-0.488,0.149-1.013,0.264-1.988,0.264c-4.876,0-6.826-3.264-6.826-7.201v-7.727h-2.701v-4.353h2.701v-3.975h4.763v3.975h4.051
			v4.353L150.545,218.406L150.545,218.406z"/>
		<path fill="#14A6C7" d="M169.634,213.605v5.177c-5.626-0.677-6.338,2.926-6.338,6.45v7.838h-4.763v-19.016h4.763v3.113
			C164.721,214.805,167.347,213.605,169.634,213.605z"/>
		<path fill="#14A6C7" d="M188.199,221.594v11.477h-4.764v-2.024c-0.899,1.463-3,2.514-5.552,2.514c-2.85,0-6.751-1.537-6.751-5.588
			c0-6.264,7.727-6.264,10.239-6.264c0.75,0,1.612,0,2.062,0c-0.037-2.738-1.013-3.939-3.938-3.939c-1.727,0-3.264,0.9-3.977,1.39
			l-3.263-2.478c2.1-1.912,4.726-3.074,7.914-3.074C186.21,213.605,188.199,217.057,188.199,221.594z M183.436,224.707
			c-0.112,0-0.226,0-0.301,0c-3.412,0-7.126-0.037-7.126,2.812c0,1.426,0.938,2.588,3.302,2.588c2.438,0,3.713-1.387,4.125-2.176
			V224.707L183.436,224.707z"/>
		<path fill="#14A6C7" d="M212.801,223.582c0,4.987-3.375,9.977-9.264,9.977c-2.963,0-4.876-1.162-6.076-2.701v2.213h-4.764v-26.254
			h4.764v9.488c1.2-1.574,3.113-2.699,6.076-2.699C209.426,213.605,212.801,218.594,212.801,223.582z M207.925,223.582
			c0-2.926-1.875-5.4-5.138-5.4c-3.264,0-5.139,2.476-5.139,5.4s1.875,5.399,5.139,5.399
			C206.05,228.982,207.925,226.508,207.925,223.582z"/>
		<path fill="#14A6C7" d="M232.116,221.594v11.477h-4.765v-2.024c-0.898,1.463-3,2.514-5.551,2.514
			c-2.851,0-6.751-1.537-6.751-5.588c0-6.264,7.728-6.264,10.239-6.264c0.75,0,1.613,0,2.062,0
			c-0.037-2.738-1.014-3.939-3.938-3.939c-1.726,0-3.265,0.9-3.976,1.39l-3.265-2.478c2.101-1.912,4.728-3.074,7.914-3.074
			C230.128,213.605,232.116,217.057,232.116,221.594z M227.352,224.707c-0.111,0-0.225,0-0.3,0c-3.413,0-7.126-0.037-7.126,2.812
			c0,1.426,0.938,2.588,3.301,2.588c2.438,0,3.713-1.387,4.125-2.176V224.707L227.352,224.707z"/>
		<path fill="#14A6C7" d="M236.615,214.055h4.727v18.678c0,4.238-2.139,7.277-6.9,7.277c-0.562,0-1.2-0.076-1.65-0.15v-4.352
			c0.15,0,0.338,0.039,0.562,0.039c2.138,0,3.263-0.978,3.263-3.451L236.615,214.055L236.615,214.055z M236.427,208.729
			c0-1.387,1.163-2.512,2.552-2.512c1.388,0,2.551,1.125,2.551,2.512c0,1.427-1.163,2.552-2.551,2.552
			C237.59,211.281,236.427,210.154,236.427,208.729z"/>
		<path fill="#14A6C7" d="M264.818,223.582c0,5.551-4.312,9.977-10.051,9.977c-5.701,0-10.016-4.426-10.016-9.977
			c0-5.588,4.312-9.978,10.016-9.978C260.505,213.605,264.818,217.994,264.818,223.582z M259.943,223.582
			c0-2.963-1.988-5.4-5.176-5.4c-3.15,0-5.14,2.438-5.14,5.4s1.988,5.399,5.14,5.399
			C257.955,228.982,259.943,226.545,259.943,223.582z"/>
		<path fill="#14A6C7" d="M273.143,230.783c0,1.536-1.236,2.774-2.738,2.774c-1.536,0-2.774-1.238-2.774-2.774
			c0-1.537,1.238-2.775,2.774-2.775C271.906,228.008,273.143,229.246,273.143,230.783z"/>
		<path fill="#14A6C7" d="M290.395,226.545l4.164,2.363c-1.764,2.812-4.877,4.649-8.553,4.649c-5.701,0-10.052-4.426-10.052-9.977
			c0-5.588,4.351-9.978,10.052-9.978c3.676,0,6.789,1.838,8.553,4.613l-4.164,2.4c-0.862-1.464-2.362-2.438-4.389-2.438
			c-3.188,0-5.176,2.438-5.176,5.4s1.988,5.399,5.176,5.399C288.032,228.982,289.532,228.008,290.395,226.545z"/>
		<path fill="#14A6C7" d="M315.936,223.582c0,5.551-4.312,9.977-10.052,9.977c-5.7,0-10.015-4.426-10.015-9.977
			c0-5.588,4.312-9.978,10.015-9.978C311.623,213.605,315.936,217.994,315.936,223.582z M311.06,223.582
			c0-2.963-1.987-5.4-5.176-5.4c-3.149,0-5.139,2.438-5.139,5.4s1.987,5.399,5.139,5.399
			C309.072,228.982,311.06,226.545,311.06,223.582z"/>
	</g>
	<g>
		<circle fill="#FFFFFF" cx="175.624" cy="77.719" r="21.222"/>
		<path fill="#FFFFFF" d="M216.191,147.115h-12.357v-19.586c0-5.68-4.616-10.298-10.298-10.298h-35.253
			c-5.679,0-10.297,4.618-10.297,10.298v19.586H135.63v-19.586c0-12.49,10.162-22.652,22.654-22.652h35.253
			c12.492,0,22.654,10.162,22.654,22.652V147.115L216.191,147.115z"/>
		<path fill="#FFFFFF" d="M230.016,165.087c0,3.131-2.539,5.669-5.67,5.669h-97.443c-3.131,0-5.669-2.538-5.669-5.669v-5.296
			c0-3.131,2.538-5.669,5.669-5.669h97.443c3.131,0,5.67,2.538,5.67,5.669V165.087z"/>
	</g>
</g>
</svg>
